# OBJ written from E:\GODOT\JAM 92\00_GREYBOX\assets\Lamp_001.obj
# Units	meters

o Mesh
v -0.109626 0.304508 -0.0871453
v -0.109626 0.304508 0.0871453
v -0.162324 0.549492 0.139842
v -0.162324 0.549492 -0.139842
v -0.0871453 0.304508 0.109626
v 0.0871453 0.304508 0.109626
v 0.139842 0.549492 0.162324
v -0.139842 0.549492 0.162324
v 0.109626 0.304508 0.0871453
v 0.109626 0.304508 -0.0871453
v 0.162324 0.549492 -0.139842
v 0.162324 0.549492 0.139842
v 0.0871453 0.304508 -0.109626
v -0.0871453 0.304508 -0.109626
v -0.139842 0.549492 -0.162324
v 0.139842 0.549492 -0.162324
v 0.139351 0.554539 -0.139351
v 0.0866542 0.309555 -0.0866542
v -0.0866542 0.309555 -0.0866542
v -0.139351 0.554539 -0.139351
v -0.139351 0.554539 0.139351
v -0.0866542 0.309555 0.0866542
v 0.139351 0.554539 0.139351
v 0.0866542 0.309555 0.0866542
v -0.105 0.231 -0.0875
v -0.107857 0.296284 -0.0939722
v -0.0939722 0.296284 -0.107857
v -0.0875 0.231 -0.105
v 0.0875 0.231 -0.105
v 0.0939722 0.296284 -0.107857
v 0.107857 0.296284 -0.0939722
v 0.105 0.231 -0.0875
v 0.105 0.231 0.0875
v 0.107857 0.296284 0.0939722
v 0.0939722 0.296284 0.107857
v 0.0875 0.231 0.105
v -0.0875 0.231 0.105
v -0.0939722 0.296284 0.107857
v -0.107857 0.296284 0.0939722
v -0.105 0.231 0.0875
v -0.14945 0.571 -0.16695
v -0.153362 0.560219 -0.164631
v -0.164631 0.560219 -0.153362
v -0.16695 0.571 -0.14945
v 0.14945 0.571 -0.16695
v 0.16695 0.571 -0.14945
v 0.164631 0.560219 -0.153362
v 0.153362 0.560219 -0.164631
v 0.14945 0.571 0.16695
v 0.153362 0.560219 0.164631
v 0.164631 0.560219 0.153362
v 0.16695 0.571 0.14945
v -0.16695 0.571 0.14945
v -0.164631 0.560219 0.153362
v -0.153362 0.560219 0.164631
v -0.14945 0.571 0.16695
v -0.0627 -0.0882 -0.0550162
v -0.0550162 -0.0882 -0.0627
v 0.0550162 -0.0882 -0.0627
v 0.0627 -0.0882 -0.0550162
v 0.0627 -0.0882 0.0550162
v 0.0550162 -0.0882 0.0627
v -0.0627 -0.0882 0.0550162
v -0.0550162 -0.0882 0.0627
v -0.0627 0.1862 -0.0550162
v -0.0550162 0.1862 -0.0627
v 0.0550162 0.1862 -0.0627
v 0.0627 0.1862 -0.0550162
v 0.0627 0.1862 0.0550162
v 0.0550162 0.1862 0.0627
v -0.0550162 0.1862 0.0627
v -0.0627 0.1862 0.0550162
v 0.136987 0.589 -0.136987
v 0.136987 0.589 0.136987
v -0.136987 0.589 0.136987
v -0.136987 0.589 -0.136987
vn -1.65017e-07 -0.210294 -0.977638
vn -1.65602e-07 -0.127461 -0.991844
vn 0 -0.0437282 -0.999043
vn 1.65602e-07 -0.127461 -0.991844
vn 1.65017e-07 -0.210294 -0.977638
vn 0 -0.210294 -0.977638
vn 0.977638 -0.210294 -1.65017e-07
vn 0.991844 -0.127461 -1.65602e-07
vn 0.999043 -0.0437282 0
vn 0.991844 -0.127461 1.65602e-07
vn 0.977638 -0.210294 1.65017e-07
vn 0.977638 -0.210294 0
vn 1.65017e-07 -0.210294 0.977638
vn 1.65602e-07 -0.127461 0.991844
vn 0 -0.0437282 0.999043
vn -1.65602e-07 -0.127461 0.991844
vn -1.65017e-07 -0.210294 0.977638
vn 0 -0.210294 0.977638
vn -0.977638 -0.210294 1.65017e-07
vn -0.991844 -0.127461 1.65602e-07
vn -0.999043 -0.0437282 0
vn -0.991844 -0.127461 -1.65602e-07
vn -0.977638 -0.210294 -1.65017e-07
vn -0.977638 -0.210294 0
vn -0.707107 0 0.707107
vn 0.707107 0 0.707107
vn -0.707107 0 -0.707107
vn 0.707107 0 -0.707107
vn 0 -1 0
vn -0.978373 0.196659 -0.0641209
vn 0.0641204 0.196659 0.978373
vn 0.978373 0.196659 -0.0641204
vn -0.0641209 0.196659 0.978373
vn 0 -0.976705 0.214585
vn -0.0722762 -0.994762 0.0722762
vn 0.0722762 -0.994762 0.0722762
vn 0 0.976705 -0.214584
vn -0.0722759 0.994762 -0.0722759
vn 0.0722759 0.994762 -0.0722759
vn 0.978373 0.196659 0.0641209
vn -0.0641204 0.196659 -0.978373
vn 0.214585 -0.976705 0
vn 0.0722762 -0.994762 -0.0722762
vn -0.214584 0.976705 0
vn -0.0722759 0.994762 0.0722759
vn 0.0641209 0.196659 -0.978373
vn -0.978373 0.196659 0.0641204
vn -0.214585 -0.976705 0
vn -0.0722762 -0.994762 -0.0722762
vn 0.214584 0.976705 0
vn 0.0722759 0.994762 0.0722759
vn 0 -0.976705 -0.214585
vn 0 0.976705 0.214584
vn 0 0 -1
vn 1 0 0
vn 0 0 1
vn -1 0 0
vn -0.703658 -0.0986505 0.703658
vn -0.692841 -0.199856 0.692841
vn -0.692841 -0.199856 -0.692841
vn -0.703658 -0.0986505 -0.703658
vn 0.703658 -0.0986505 0.703658
vn 0.692841 -0.199856 0.692841
vn 0.703658 -0.0986505 -0.703658
vn 0.692841 -0.199856 -0.692841
vn -0.703524 -0.100539 -0.703524
vn 0.703524 -0.100539 -0.703524
vn 0.703524 -0.100539 0.703524
vn -0.703524 -0.100539 0.703524
vn -0.70328 0.103901 -0.70328
vn 0.70328 0.103901 -0.70328
vn 0.70328 0.103901 0.70328
vn -0.70328 0.103901 0.70328
vn -0.237229 -0.752319 -0.614604
vn 0.237229 -0.752319 -0.614604
vn 0.614604 -0.752319 -0.237229
vn 0.614604 -0.752319 0.237229
vn 0.237229 -0.752319 0.614604
vn -0.237229 -0.752319 0.614604
vn -0.614604 -0.752319 0.237229
vn -0.614604 -0.752319 -0.237229
vn 0.448162 0.874486 -0.185537
vn 0.185537 0.874486 -0.448162
vn 0.232358 0.944468 -0.232358
vn 0.185537 0.874486 0.448162
vn 0.448162 0.874486 0.185537
vn 0.232358 0.944468 0.232358
vn -0.448162 0.874486 0.185537
vn -0.185537 0.874486 0.448162
vn -0.232358 0.944468 0.232358
vn -0.185537 0.874486 -0.448162
vn -0.448162 0.874486 -0.185537
vn -0.232358 0.944468 -0.232358
vt 0.5 1.00443
vt 0.5 1
vt 0.5 1.00884
vt 0.479167 1
vt 0.270833 1
vt 0.25 0.994538
vt 0.25 0.991156
vt 0.25 1
vt 0.263103 1
vt 0.486897 1
vt 0.505911 0.666667
vt 0.5 0.666667
vt 0.511792 0.666667
vt 0.5 0.694444
vt 0.5 0.972222
vt 0.492717 1
vt 0.488208 1
vt 0.5 0.98253
vt 0.5 0.684137
vt 0.25 0.662234
vt 0.25 0.666667
vt 0.25 0.657823
vt 0.270833 0.666667
vt 0.479167 0.666667
vt 0.5 0.672129
vt 0.5 0.675511
vt 0.486897 0.666667
vt 0.263103 0.666667
vt 0.244089 1
vt 0.238208 1
vt 0.25 0.972222
vt 0.25 0.694444
vt 0.257283 0.666667
vt 0.261792 0.666667
vt 0.25 0.684137
vt 0.25 0.98253
vt 0.270833 0.374359
vt 0.270833 0.625641
vt 0.229167 0.625641
vt 0.229167 0.374359
vt 0.520833 0.374359
vt 0.520833 0.625641
vt 0.479167 0.625641
vt 0.479167 0.374359
vt -0.0208333 0.625641
vt -0.0208333 0.374359
vt 0.0208333 0.374359
vt 0.0208333 0.625641
vt 0.770833 0.374359
vt 0.770833 0.625641
vt 0.729167 0.625641
vt 0.729167 0.374359
vt 0.979167 0.374359
vt 0.494104 1
vt 0.5 1.00442
vt 0.244104 1
vt 0.25 0.995578
vt 0.255896 0.666667
vt 0.25 0.662245
vt 0.5 0.671089
vt 0.505896 0.666667
vt 0.979167 0.625641
vt 1 0.666667
vt 0.979167 0.666667
vt 0.770833 0.666667
vt 0.75 0.666667
vt 0.729167 0.666667
vt 0.520833 0.666667
vt 0.229167 0.666667
vt 0.0208333 0.666667
vt -0.0208333 0.666667
vt 0.473795 0.973795
vt 0.473795 0.692872
vt 0.276205 0.692872
vt 0.276205 0.973795
mtllib Lamp_001.mtl
usemtl Default
g Default
f 48/1/1 30/2/2 13/2/2 16/3/1
f 29/4/3 28/5/3 27/6/4 14/7/4 13/2/2 30/2/2
f 42/8/5 15/8/5 14/7/4 27/6/4
f 41/9/6 45/10/6 48/1/1 16/3/1 15/8/5 42/8/5
f 51/11/7 34/12/8 9/12/8 12/13/7
f 33/14/9 32/15/9 31/16/10 10/17/10 9/12/8 34/12/8
f 47/2/11 11/2/11 10/17/10 31/16/10
f 46/18/12 52/19/12 51/11/7 12/13/7 11/2/11 47/2/11
f 55/20/13 38/21/14 5/21/14 8/22/13
f 37/23/15 36/24/15 35/25/16 6/26/16 5/21/14 38/21/14
f 50/12/17 7/12/17 6/26/16 35/25/16
f 49/27/18 56/28/18 55/20/13 8/22/13 7/12/17 50/12/17
f 43/29/19 26/8/20 1/8/20 4/30/19
f 25/31/21 40/32/21 39/33/22 2/34/22 1/8/20 26/8/20
f 54/21/23 3/21/23 2/34/22 39/33/22
f 53/35/24 44/36/24 43/29/19 4/30/19 3/21/23 54/21/23
f 64/37/25 71/38/25 72/39/25 63/40/25
f 61/41/26 69/42/26 70/43/26 62/44/26
f 66/45/27 58/46/27 57/47/27 65/48/27
f 59/49/28 67/50/28 68/51/28 60/52/28
f 62/44/29 64/37/29 63/40/29 57/47/29 58/53/29 59/49/29 60/52/29 61/41/29
f 16/3/30 13/2/30 18/54/30 17/55/30
f 10/17/31 11/2/31 17/55/31 18/54/31
f 14/7/32 15/8/32 20/56/32 19/57/32
f 4/30/33 1/8/33 19/57/33 20/56/33
f 15/8/34 16/3/34 17/55/35 20/56/36
f 13/2/37 14/7/37 19/57/38 18/54/39
f 8/22/40 5/21/40 22/58/40 21/59/40
f 2/34/41 3/21/41 21/59/41 22/58/41
f 3/21/42 4/30/42 20/56/36 21/59/43
f 1/8/44 2/34/44 22/58/45 19/57/38
f 12/13/46 9/12/46 24/60/46 23/61/46
f 6/26/47 7/12/47 23/61/47 24/60/47
f 11/2/48 12/13/48 23/61/49 17/55/35
f 9/12/50 10/17/50 18/54/39 24/60/51
f 7/12/52 8/22/52 21/59/43 23/61/49
f 5/21/53 6/26/53 24/60/51 22/58/45
f 18/54/39 19/57/38 22/58/45 24/60/51
f 23/61/49 21/59/43 20/56/36 17/55/35
f 66/62/54 67/50/54 59/49/54 58/53/54
f 68/51/55 69/42/55 61/41/55 60/52/55
f 70/43/56 71/38/56 64/37/56 62/44/56
f 72/39/57 65/48/57 57/47/57 63/40/57
f 54/21/58 39/33/59 38/21/59 55/20/58
f 26/8/60 43/29/61 42/8/61 27/6/60
f 50/12/62 35/25/63 34/12/63 51/11/62
f 47/2/64 31/16/65 30/2/65 48/1/64
f 25/63/66 26/63/60 27/63/60 28/64/66
f 29/65/67 30/66/65 31/66/65 32/67/67
f 33/68/68 34/12/63 35/25/63 36/24/68
f 37/23/69 38/21/59 39/33/59 40/69/69
f 41/9/70 42/8/61 43/29/61 44/36/70
f 45/10/71 46/18/71 47/2/64 48/1/64
f 49/27/72 50/12/62 51/11/62 52/19/72
f 53/35/73 54/21/58 55/20/58 56/28/73
f 28/64/74 29/65/75 67/50/75 66/62/74
f 29/65/75 32/67/76 68/51/76 67/50/75
f 32/67/76 33/68/77 69/42/77 68/51/76
f 33/68/77 36/24/78 70/43/78 69/42/77
f 36/24/78 37/23/79 71/38/79 70/43/78
f 37/23/79 40/69/80 72/39/80 71/38/79
f 40/69/80 25/70/81 65/48/81 72/39/80
f 25/70/81 28/71/74 66/45/74 65/48/81
f 46/18/82 45/10/83 73/72/84
f 49/27/85 52/19/86 74/73/87
f 52/19/86 46/18/82 73/72/84 74/73/87
f 53/35/88 56/28/89 75/74/90
f 56/28/89 49/27/85 74/73/87 75/74/90
f 41/9/91 44/36/92 76/75/93
f 45/10/83 41/9/91 76/75/93 73/72/84
f 44/36/92 53/35/88 75/74/90 76/75/93
f 76/75/93 75/74/90 74/73/87 73/72/84
