<svg width="256" height="256" viewBox="0 0 256 256" fill="none" xmlns="http://www.w3.org/2000/svg">
<path fill-rule="evenodd" clip-rule="evenodd" d="M34 18L40.0001 12V0H216L224 8H248L256 16V236H220L200 256H18L0 238V18H34ZM224 10L216 2H142H42.0001V12L34 20H2V112V238L18 254H200L206 248L220 234H254V132V16L248 10H224Z" fill="white" fill-opacity="0.6"/>
<path d="M256 242V256H242V242H256Z" fill="white"/>
<path fill-rule="evenodd" clip-rule="evenodd" d="M236 256V242H222V256H236ZM224 244V254H234V244H224Z" fill="white" fill-opacity="0.6"/>
<path d="M34 0V14H20V0H34Z" fill="white"/>
<path fill-rule="evenodd" clip-rule="evenodd" d="M14 14V0H0V14H14ZM2 2V12H12V2H2Z" fill="white" fill-opacity="0.6"/>
<path d="M218 0H256V14L248 6H224L218 0Z" fill="white"/>
<path d="M2 238L18 254H200L206 248H136L130 242H48.0001L14.0001 208V124L2 112V238Z" fill="white" fill-opacity="0.2"/>
<path d="M224 10L216 2H142L150 10H210L244 44V104L248 108V126L254 132V16L248 10H224Z" fill="white" fill-opacity="0.2"/>
<path d="M220 234H254V132L248 126V108L244 104V44L210 10H150L142 2H42.0001V12L34 20H2V112L14.0001 124V208L48.0001 242H130L136 248H206L220 234Z" fill="white" fill-opacity="0.1"/>
</svg>
