# OBJ written from E:\GODOT\JAM 92\00_GREYBOX\Passage.obj
# Units	meters

o Mesh
v 0.1715 0 0
v 0.4335 0 0
v 0.937233 -0.0160497 -0.890643
v 0.937233 -1.49012e-08 -0.890643
v 0.766113 -0.0160497 -0.719523
v 0.766113 -1.49012e-08 -0.719523
v 0.541483 -0.0160497 -0.94413
v 0.711955 -0.0160497 -1.11592
v 0.541488 -7.45058e-09 -0.944136
v 0.711955 -7.45058e-09 -1.11592
v 0.173094 -0.0159824 -0.575714
v 0.1731 6.73309e-05 -0.575719
v 0.4335 0 -0.312576
v 0.1715 0 -0.381871
v 0.433463 1.97366e-05 -0.836102
v 0.433463 -0.0160299 -0.836102
v 0.4335 -0.0160649 -0.312576
v 0.171499 -0.0160396 -0.418171
v 0.433496 3.03909e-05 -0.386876
v 0.433494 -0.0160117 -0.386876
v 0.1847 0 -0.014178
v 0.4203 0 -0.014178
v 0.756779 -1.49012e-08 -0.728857
v 0.55084 -7.45058e-09 -0.93482
v 0.186254 5.86882e-05 -0.570206
v 0.4203 0 -0.312576
v 0.1847 0 -0.381871
v 0.442797 1.847e-05 -0.826769
v 0.184699 6.33299e-06 -0.418115
v 0.420296 3.016e-05 -0.392344
v 0.928222 -1.49012e-08 -0.899654
v 0.721687 -7.45058e-09 -1.10619
v 0.928222 -0.0160497 -0.899654
v 0.721687 -0.0160497 -1.10619
v 0.1715 0 -0.0138218
v 0.1715 0.147966 0
v 0.4335 0.147966 0
v 0.937233 0.147966 -0.890643
v 0.766113 0.147966 -0.719523
v 0.541488 0.147966 -0.944136
v 0.711955 0.147966 -1.11592
v 0.1731 0.148034 -0.575719
v 0.4335 0.147966 -0.312576
v 0.1715 0.147966 -0.381871
v 0.433463 0.147986 -0.836102
v 0.171499 0.147971 -0.418171
v 0.433496 0.147997 -0.386876
v 0.1847 0.147966 -0.014178
v 0.4203 0.147966 -0.014178
v 0.756779 0.147966 -0.728857
v 0.55084 0.147966 -0.93482
v 0.186254 0.148025 -0.570206
v 0.4203 0.147966 -0.312576
v 0.1847 0.147966 -0.381871
v 0.442797 0.147985 -0.826769
v 0.184699 0.147973 -0.418115
v 0.420296 0.147996 -0.392344
v 0.928222 0.147966 -0.899654
v 0.721687 0.147966 -1.10619
v 0.1715 0.147966 -0.0138218
v 0.937233 -0.766171 -0.890643
v 0.766113 -0.766171 -0.719523
v 0.541483 -0.766171 -0.94413
v 0.711955 -0.766171 -1.11592
v 0.173094 -0.766104 -0.575714
v 0.433463 -0.766151 -0.836102
v 0.1715 -0.766171 0
v 0.4335 -0.766186 0
v 0.4335 -0.766186 -0.312576
v 0.171499 -0.766161 -0.418171
v 0.1715 -0.766171 -0.312572
v 0.433494 -0.766133 -0.386876
v 0.928222 -0.766171 -0.899654
v 0.721687 -0.766171 -1.10619
v 0.1715 -0.766171 -0.04
v 0.912539 -0.766171 -0.888961
v 0.753668 -0.766171 -0.731968
v 0.553952 -0.766171 -0.93171
v 0.707703 -0.766171 -1.09528
v 0.190633 -0.766115 -0.568363
v 0.445908 -0.766153 -0.823657
v 0.4159 -0.766185 -0.0447561
v 0.4159 -0.766185 -0.312575
v 0.189099 -0.766159 -0.386802
v 0.1891 -0.766172 -0.312576
v 0.415893 -0.766132 -0.394166
v 0.906461 -0.766171 -0.895039
v 0.713543 -0.766171 -1.08944
v 0.924787 -0.722171 -0.903088
v 0.753669 -0.722171 -0.731969
v 0.553954 -0.722171 -0.931711
v 0.724448 -0.722171 -1.10343
v 0.19065 -0.722115 -0.568352
v 0.445914 -0.722153 -0.823659
v 0.415903 -0.722185 -0.032259
v 0.189094 -0.722159 -0.381871
v 0.415891 -0.722132 -0.392344
v 0.1891 -0.766172 -0.0423781
v 0 0 0
v 0 0 -0.381871
v 0 -0.0160497 -0.381871
v 0 -0.0160497 -0.04
v 0 0 -0.04
v 0 -0.722172 -0.032259
v -8.82149e-06 -0.722159 -0.381871
v 0.189103 -0.722172 -0.032259
v 0.4335 -0.723167 0
v 0.1715 -0.723167 0
v 0 -0.723167 0
v 0.189103 -0.550138 -0.032259
v 0 -0.550138 -0.032259
v 0.189094 -0.550161 -0.381871
v -8.82149e-06 -0.550161 -0.381871
v 0.415891 -0.550099 -0.392344
v 0.415903 -0.550152 -0.032259
v 0.4335 -0.0160497 0
v 0 -0.262134 -0.032259
v 0.189103 -0.262134 -0.032259
v 0.189094 -0.262167 -0.381871
v 0.924787 -0.550137 -0.903088
v 0.724448 -0.550137 -1.10343
v 0.553954 -0.550137 -0.931711
v 0.445914 -0.550119 -0.823659
v 0.753669 -0.550137 -0.731969
v 0.19065 -0.550099 -0.568352
v 0.415891 -0.262134 -0.392344
v 0.753669 -0.262173 -0.731969
v 0.924787 -0.262173 -0.903088
v 0.415903 -0.262187 -0.032259
v 0.724448 -0.262173 -1.10343
v 0.553954 -0.262173 -0.931711
v 0.445914 -0.262154 -0.823659
v 0.19065 -0.262134 -0.568352
v 0.766113 -0.262134 -0.719523
v 0.937233 -0.262134 -0.890643
v 0.433494 -0.262134 -0.386876
v 0.173094 -0.262099 -0.575714
v 0.171499 -0.262156 -0.418171
v 0.433463 -0.262147 -0.836102
v 0.541483 -0.262166 -0.94413
v 0.711955 -0.262166 -1.11592
v 0 -0.262134 0
v 0.1715 -0.262134 0
v 0.4335 -0.262134 -0.312576
v 0.4335 -0.262134 0
v 0.173094 -0.55007 -0.575714
v 0.171499 -0.550127 -0.418171
v 0.433463 -0.550118 -0.836102
v 0.541483 -0.550137 -0.94413
v 0.711955 -0.550137 -1.11592
v 0.937233 -0.722185 -0.890643
v 0.766113 -0.722185 -0.719523
v 0.433494 -0.722185 -0.386876
v 0.4335 -0.722676 -0.312576
v 0.1715 -0.550628 0
v 0 -0.550628 0
v 0.4335 -0.550628 0
v 0.937233 -0.550137 -0.890643
v 0.766113 -0.550137 -0.719523
v 0.433494 -0.550137 -0.386876
v 0.4335 -0.550383 -0.312576
v -8.82149e-06 -0.262156 -0.381871
v 0 -0.0160497 0
v 0.1715 -0.0160497 0
v 0.171499 -0.722159 -0.418171
v 0.173094 -0.722159 -0.575714
v 0.433463 -0.722159 -0.836102
v 0.541483 -0.722159 -0.94413
v 0.711955 -0.722159 -1.11592
v -8.82149e-06 -0.262156 -0.418171
v -8.82149e-06 -0.550127 -0.418171
v -8.82149e-06 -0.722159 -0.418171
v 0 0 -0.418171
v -4.41074e-06 -0.0160446 -0.418171
v 0.1715 2.5332e-06 -0.418171
v -8.82149e-06 -0.765667 -0.381871
v 0 -0.76568 -0.032259
v 0 -0.766423 0
v -8.82149e-06 -0.765914 -0.418171
vn 0.707107 0 0.707106
vn 0.707122 -2.36464e-05 0.707091
vn 0.707122 -2.36464e-05 0.707092
vn -4.75506e-05 1 0.000107552
vn -1.57217e-05 1 -2.77234e-05
vn -9.76379e-05 1 -3.19663e-05
vn -0.000104423 1 0.000173069
vn -5.56043e-05 1 0.000189052
vn -3.70695e-05 1 0.000126035
vn -0.70848 4.69575e-07 -0.705731
vn -0.70848 4.69575e-07 -0.705731
vn -0.707134 9.1956e-09 -0.70708
vn -0.707133 9.06034e-09 -0.70708
vn -0.707133 9.06034e-09 -0.70708
vn 0.707136 -4.72927e-05 0.707078
vn 0.707137 -4.72927e-05 0.707077
vn 3.31063e-05 1 -1.17312e-05
vn 1 0 -2.88797e-05
vn 1 0 -3.60996e-05
vn 1 0 -7.21992e-05
vn 1 0 -5.77594e-05
vn 3.61921e-05 1 -2.10426e-05
vn 0 1 0
vn 9.09239e-05 1 -4.07947e-05
vn 0.000109464 1 -3.95042e-05
vn 5.5848e-05 1 1.14954e-05
vn 7.99761e-05 1 -1.4865e-05
vn 0 1 0.000139569
vn 0.000244623 1 0.000269945
vn 0.000503113 1 0.000367238
vn 0.00030116 1 0.000124242
vn 4.26701e-05 1 -4.28361e-05
vn 6.73843e-06 1 -3.80746e-05
vn 6.74184e-06 1 0.000150974
vn 3.41459e-09 1 0.000189049
vn -0.709823 9.29817e-07 -0.70438
vn -0.709823 9.29817e-07 -0.70438
vn 0.707106 8.20125e-08 -0.707107
vn 0.707107 0 -0.707107
vn 0.707107 0 -0.707107
vn -0.000233898 -1 -0.000146983
vn -0.000116949 -1 -2.57547e-05
vn -3.18206e-05 -1 -7.64487e-05
vn -6.0233e-05 -1 -7.98647e-05
vn 0.707106 1.48733e-07 -0.707108
vn 0.707105 1.3344e-07 -0.707108
vn 1.80031e-08 1 1.80712e-08
vn -1 0 0
vn -1 4.67886e-06 3.66855e-05
vn -1 1.9843e-07 6.30804e-06
vn 0 1 2.32616e-05
vn 0 0 1
vn 1 0 0
vn 1 0 -2.88797e-05
vn 1 0 -5.77594e-05
vn 0.707123 0 0.707091
vn 0.707138 0 0.707075
vn -0.705772 0 -0.708439
vn -0.706455 0 -0.707758
vn -0.707138 0 -0.707075
vn -1 0 5.67894e-05
vn -1 0 2.83947e-05
vn 0 0 -1
vn -0.0134886 0 -0.999909
vn -0.0269747 0 -0.999636
vn 0.707134 0 0.70708
vn 0.707134 0 0.70708
vn 0.707658 0 0.706555
vn 0.708182 0 0.70603
vn -0.70848 0 -0.705731
vn -0.709823 0 -0.70438
vn -0.707134 0 -0.70708
vn -0.707133 0 -0.70708
vn 1 0 -1.97342e-05
vn 0.999987 0 0.00509956
vn 0.999948 0 0.0102187
vn -5.75868e-05 -1 -0.000324356
vn -5.77923e-05 -1 8.64472e-08
vn -5.78883e-05 -1 5.76315e-08
vn -5.78329e-05 -1 -0.000324356
vn -0.000252685 -0.999998 0.00211644
vn 0.000298627 -1 -0.000157276
vn 0.000153211 -1 -0.00013466
vn 0.000183349 -1 -0.000336173
vn -0.000141672 -1 4.11015e-05
vn -7.08027e-05 -1 2.05174e-05
vn -7.86966e-05 -1 2.04165e-05
vn -0.000125943 -1 3.41393e-05
vn 0 -1 0
vn -3.14948e-05 -1 6.73828e-06
vn -3.14948e-05 -1 6.73828e-06
vn -3.11632e-05 -1 2.6185e-05
vn -5.22703e-05 -1 2.4195e-05
vn -0.00111945 -0.999998 0.00166707
vn -5.7831e-05 -1 -0.000186167
vn -3.24836e-05 -1 -0.000293829
vn -5.99637e-05 -1 -0.000298171
vn 0.000451168 -1 5.76315e-08
vn -5.78094e-05 -1 4.32236e-08
vn -0.000392306 -1 -9.18788e-06
vn 0 1 3.48923e-05
vn -1 0 3.24438e-05
vn -1 0 3.24438e-05
vn 0.709626 0 0.704579
vn 0.708387 0 0.705824
vn 0.707157 0 0.707057
vn -0.709033 0 -0.705176
vn -0.708071 0 -0.706142
vn -0.707107 0 -0.707106
vn 0.999965 0 0.0083465
vn 0.999965 0 0.0083465
vn 0.707168 0 0.707046
vn 0.707168 0 0.707046
vn 0 1 3.69959e-05
vn 2.90402e-05 1 3.69952e-05
vn 5.80804e-05 1 3.69944e-05
vn 0.000138436 -1 -0.000177837
vn 2.65997e-05 -1 -4.63058e-05
vn -4.26185e-05 -1 4.26126e-05
vn 0.707104 1.9831e-07 -0.707109
vn 0.707107 1.0935e-07 -0.707107
vn 0.707107 0 0.707106
vn 0.707122 0 0.707092
vn 0.707136 0 0.707078
vn -0.999949 0 -0.0101284
vn -0.999949 3.34379e-05 -0.0101422
vn -0.707133 0 -0.70708
vn -0.707134 0 -0.70708
vn -0.70848 0 -0.705731
vn -0.709823 0 -0.70438
vn 1 0 -4.33195e-05
vn 1 0 -8.66391e-05
vn 0.707103 1.3344e-07 -0.70711
vn -0.709823 0 -0.70438
vn 0.707103 0 -0.70711
vn 0.707136 0 0.707078
vn 1 0 -4.33195e-05
vn 1 0 -8.66391e-05
vn -1 0 8.41074e-06
vn -1 2.64573e-07 8.41072e-06
vn 0 -1 9.54733e-05
vn -1 6.23848e-06 4.89141e-05
vn 0.707107 -4.37821e-08 -0.707107
vn -0.999949 0 -0.0101284
vn 0.707104 -4.37821e-08 -0.707109
vn 0.707105 -6.56732e-08 -0.707109
vn 0.707103 0 -0.70711
vn 0.707106 -6.56732e-08 -0.707107
vn -1 8.96086e-06 6.0755e-05
vn -0.999977 2.14866e-05 -0.00676747
vn -0.999948 3.34379e-05 -0.010156
vn -0.999987 -1.20847e-06 -0.00507315
vn -0.999948 0 -0.010156
vn -1 -2.41691e-06 9.85179e-06
vn 0 1 6.97847e-05
vn -1 0 1.26161e-05
vn -0.00143945 -0.999976 0.00680097
vn -0.00218132 -0.999992 0.00338213
vn 0.00146909 -0.999999 0
vn -0.000727041 -1 -1.83758e-05
vt 0 0
vt 0 1
vt 0.479868 0.5
vt 0.357872 0.798666
vt 0.768809 0.728725
vt -0.0100661 0.0100661
vt -0.00450171 0.986495
vt 0.168837 0.27261
vt 0.5 0.5
vt -0.0100661 0.989934
vt 0.372002 0.796942
vt 1 0
vt 0 -0.0189809
vt 0.417788 -0.0189809
vt 0.17022 0.25368
vt 1 0.333333
vt 0.5 0.526843
vt 1 0.666667
vt 0.0152975 1
vt 0.382438 1
vt 0.365917 1
vt 1 0.0142357
vt 0.0142357 0.0142357
vt 0.0142357 0.985764
vt 0.045 1
vt 0.379169 0
vt 0.0151668 0
vt 1 1
vt 1 0.5
vt 0.362789 0
vt 0 0.955
vt 1 0.9775
vt 1 0.985764
vt 1.01898 1
vt 0.362789 0
vt 0.362789 -0.0189809
vt 0.0151668 -0.0189809
vt 1.00949 0.98875
vt 1.01898 0.5
vt 0.923973 0.0675799
vt 0.923986 1
vt 0.25 0.666667
vt 1.01342 0.0134215
vt 0.625 0.333333
vt 1 0.673986
vt 1 0.898648
vt 0 0.898648
vt 0 0.673986
vt 0 0.449324
vt 1 0.449324
vt 0.75549 1
vt 0.755479 0.217352
vt 0.586986 0.367123
vt 0.586993 1
vt 0.8125 0.166667
vt 0.625 1
vt 0.5 0.666667
vt 0.5 1
vt 1 0.333333
mtllib Passage.mtl
usemtl Default
g Default
f 3/1/1 4/2/1 6/2/2 5/1/3
f 30/3/4 28/4/5 25/4/6 29/5/7
f 26/6/8 30/3/4 29/5/7 27/7/9
f 9/4/10 7/8/11 16/8/12 15/4/12
f 11/8/13 12/4/14 15/4/12 16/8/12
f 20/9/15 5/1/3 6/2/2 19/9/16
f 30/3/4 23/10/17 24/11/17 28/4/5
f 13/1/18 17/12/19 20/9/20 19/2/21
f 90/1/22 89/13/23 92/14/23 91/8/22
f 94/8/24 93/15/25 96/16/26 97/17/27
f 44/2/28 54/7/28 56/5/29 46/18/29
f 42/4/30 46/18/29 56/5/29 52/4/30
f 42/4/30 52/4/30 55/4/31 45/4/31
f 51/11/32 40/4/32 45/4/31 55/4/31
f 50/10/33 39/2/33 38/2/23 58/19/23
f 41/20/23 40/4/32 51/11/32 59/21/23
f 57/3/34 47/9/34 39/2/33 50/10/33
f 53/6/35 43/1/35 47/9/34 57/3/34
f 37/1/23 43/12/35 53/22/35 49/23/23
f 37/1/23 49/23/23 48/24/23 60/25/23 36/2/23
f 7/8/11 9/4/10 10/20/36 8/26/37
f 33/27/38 31/19/39 4/2/40 3/1/40
f 129/12/41 118/28/42 119/29/43 126/28/44
f 34/30/45 8/26/46 10/20/40 32/21/39
f 34/30/45 32/21/39 31/19/39 33/27/38
f 31/19/47 32/21/47 24/11/17 23/10/17
f 103/31/48 100/1/48 101/29/49 102/32/50
f 97/17/27 90/1/22 91/8/22 94/8/24
f 27/33/9 21/24/23 22/23/23 26/22/8
f 35/25/23 21/24/23 27/33/9 14/28/51
f 1/2/52 2/1/52 37/1/52 36/2/52
f 2/1/53 13/12/18 43/12/54 37/1/53
f 13/1/18 19/9/21 47/9/55 43/1/54
f 19/9/16 6/2/2 39/2/56 47/9/57
f 6/2/2 4/2/1 38/2/1 39/2/56
f 4/2/40 31/19/39 58/19/40 38/2/40
f 31/19/58 23/10/59 50/10/59 58/19/58
f 23/10/59 30/3/60 57/3/60 50/10/59
f 30/3/61 26/6/62 53/6/62 57/3/61
f 26/22/62 22/23/48 49/23/48 53/22/62
f 22/23/63 21/24/64 48/24/64 49/23/63
f 21/24/64 35/25/65 60/25/65 48/24/64
f 35/25/48 1/2/48 36/2/48 60/25/48
f 25/4/66 28/4/67 55/4/67 52/4/66
f 28/4/67 24/11/68 51/11/68 55/4/67
f 24/11/68 32/21/69 59/21/69 51/11/68
f 32/21/39 10/20/40 41/20/40 59/21/40
f 10/20/36 9/4/10 40/4/70 41/20/71
f 9/4/10 15/4/12 45/4/72 40/4/70
f 15/4/12 12/4/14 42/4/73 45/4/72
f 14/2/52 27/7/52 54/7/52 44/2/52
f 27/7/74 29/5/75 56/5/75 54/7/74
f 29/5/75 25/4/76 52/4/76 56/5/75
f 69/28/77 68/12/78 82/12/79 83/34/80
f 70/16/81 65/8/82 80/15/83 84/16/84
f 66/8/85 63/8/86 78/8/87 81/8/88
f 63/8/86 64/26/89 79/14/90 78/8/87
f 64/26/89 74/35/89 88/36/91 79/14/90
f 74/35/89 73/27/89 87/37/91 88/36/91
f 73/27/89 61/1/89 76/13/90 87/37/91
f 61/1/89 62/1/92 77/1/93 76/13/90
f 71/16/94 70/16/81 84/16/84 85/16/95
f 83/28/80 85/29/95 84/16/84 86/17/96
f 66/8/85 81/8/88 80/15/83 65/8/82
f 86/17/96 77/1/93 62/1/92 72/9/97
f 86/17/96 80/15/83 81/8/88 78/8/87 79/14/90 88/36/91 87/37/91 76/13/90 77/1/93
f 80/15/83 86/17/96 84/16/84
f 68/12/78 67/28/98 98/38/99 82/12/79
f 67/28/98 75/32/100 98/38/99
f 85/39/95 98/38/99 75/32/100 71/29/94
f 85/29/95 83/28/80 82/12/79 98/38/99
f 1/2/23 35/31/23 103/31/23 99/2/23
f 35/31/23 14/1/51 100/1/101 103/31/23
f 68/12/52 107/40/52 108/41/52 67/28/52
f 104/1/63 111/12/63 110/28/63 106/2/63
f 96/1/52 112/12/52 113/28/52 105/2/52
f 115/1/102 129/12/103 126/28/103 114/2/102
f 106/1/63 110/12/63 115/29/63 95/2/63
f 2/1/53 116/42/53 17/28/19 13/2/18
f 111/1/63 117/12/63 118/28/63 110/2/63
f 92/1/104 121/12/104 122/28/105 91/2/105
f 91/1/105 122/12/105 123/28/106 94/2/106
f 97/1/107 114/12/107 124/29/108 90/2/108
f 90/1/108 124/29/108 120/28/109 89/2/109
f 93/1/110 125/29/111 112/28/111 96/2/110
f 94/1/106 123/12/106 125/29/112 93/2/113
f 95/1/102 115/29/102 114/28/102 97/2/102
f 114/1/107 126/12/107 127/28/108 124/2/108
f 124/1/108 127/12/108 128/28/109 120/2/109
f 121/1/104 130/12/104 131/28/105 122/2/105
f 122/1/105 131/12/105 132/28/106 123/2/106
f 125/1/111 133/29/111 119/29/111 112/2/111
f 123/1/106 132/12/106 133/29/112 125/2/112
f 118/28/63 129/12/63 115/1/63 110/2/63
f 104/28/114 106/2/115 96/1/26 105/12/114
f 106/38/115 95/12/116 97/17/27 96/16/26
f 119/29/43 133/29/117 132/12/118 126/28/44
f 131/12/119 127/28/119 126/12/44 132/28/118
f 131/28/119 130/12/89 128/28/89 127/12/119
f 130/12/120 34/35/45 33/27/38 128/28/121
f 135/1/122 3/1/1 5/1/3 134/1/123
f 134/1/123 5/1/3 20/9/15 136/9/124
f 138/16/125 18/16/126 11/8/126 137/8/125
f 137/8/127 11/8/13 16/8/12 139/8/128
f 139/8/128 16/8/12 7/8/11 140/8/129
f 140/8/129 7/8/11 8/26/37 141/26/130
f 83/43/80 86/17/96 72/9/97 69/12/77
f 144/28/131 17/28/19 116/42/53 145/44/53
f 136/9/132 20/9/20 17/12/19 144/12/131
f 135/1/40 128/28/121 33/27/38 3/1/40
f 130/12/120 141/26/133 8/26/46 34/35/45
f 147/16/125 138/16/125 137/8/125 146/8/125
f 146/8/73 137/8/127 139/8/128 148/8/72
f 148/8/72 139/8/128 140/8/129 149/8/129
f 149/8/129 140/8/129 141/26/130 150/26/134
f 121/1/135 150/26/135 141/26/133 130/12/120
f 152/1/123 62/1/123 61/1/1 151/1/122
f 152/1/123 153/9/124 72/9/124 62/1/123
f 154/28/131 107/12/53 68/12/53 69/28/131
f 153/9/132 154/12/131 69/12/131 72/9/132
f 156/45/52 109/46/52 108/47/52 155/48/52
f 155/48/52 143/49/52 142/50/52 156/45/52
f 155/51/52 108/41/52 107/40/52 157/52/52
f 157/52/52 145/53/52 143/54/52 155/51/52
f 159/1/123 152/1/123 151/1/122 158/1/122
f 158/1/122 135/1/122 134/1/123 159/1/123
f 160/9/136 153/9/124 152/1/123 159/1/123
f 159/1/123 134/1/123 136/9/124 160/9/136
f 161/12/137 154/12/131 153/9/132 160/9/138
f 160/9/138 136/9/132 144/12/131 161/12/137
f 157/55/53 107/12/53 154/28/131 161/28/137
f 161/28/137 144/28/131 145/44/53 157/55/53
f 111/12/48 104/1/139 109/46/48 156/45/48
f 117/12/140 111/1/48 156/45/48 142/50/48
f 118/28/42 117/12/141 162/28/141 119/29/43
f 112/1/52 119/29/52 162/28/52 113/2/52
f 117/12/140 102/32/50 101/29/49 162/28/142
f 103/31/48 102/32/50 163/29/48 99/2/48
f 142/50/48 163/29/48 102/32/50 117/12/140
f 164/56/52 116/42/52 2/57/52 1/58/52
f 145/53/52 116/42/52 164/56/52 143/54/52
f 164/56/52 1/2/52 99/2/52 163/29/52
f 143/49/52 164/1/52 163/29/52 142/50/52
f 158/1/40 120/2/40 128/28/121 135/1/40
f 120/28/40 158/1/40 151/1/40 89/2/143
f 70/16/144 165/16/125 166/8/125 65/8/144
f 166/8/125 165/16/125 147/16/125 146/8/125
f 65/8/73 166/8/73 167/8/72 66/8/72
f 167/8/72 166/8/73 146/8/73 148/8/72
f 66/8/72 167/8/72 168/8/129 63/8/129
f 168/8/129 167/8/72 148/8/72 149/8/129
f 169/26/134 168/8/129 149/8/129 150/26/134
f 169/26/134 64/26/134 63/8/129 168/8/129
f 92/1/145 169/26/135 150/26/135 121/12/135
f 169/26/135 92/1/145 74/35/146 64/26/147
f 61/1/40 73/27/148 89/2/143 151/1/40
f 73/27/148 74/35/146 92/14/145 89/13/143
f 147/1/63 171/12/63 170/28/63 138/2/63
f 165/1/63 172/12/63 171/28/63 147/2/63
f 171/28/48 172/12/48 105/2/139 113/28/48
f 170/28/149 171/12/48 113/2/48 162/28/142
f 138/1/63 170/12/63 174/28/63 18/2/63
f 100/1/48 173/12/48 174/28/149 101/2/49
f 175/1/150 12/4/151 11/8/126 18/16/126
f 12/4/151 175/59/150 46/18/152 42/4/153
f 175/59/150 14/2/154 44/2/154 46/18/152
f 14/1/51 175/59/155 173/28/155 100/2/101
f 174/28/63 173/12/63 175/59/63 18/16/63
f 174/28/149 170/12/149 162/28/142 101/29/49
f 105/1/139 176/12/156 177/28/156 104/2/139
f 108/47/52 109/46/52 178/28/52 67/2/52
f 104/1/139 177/12/156 178/28/48 109/2/48
f 70/1/63 179/12/63 172/28/63 165/2/63
f 172/1/48 179/12/48 176/28/156 105/2/139
f 179/12/157 70/16/81 71/16/94 176/28/158
f 67/28/98 178/28/159 177/12/160 75/32/100
f 176/12/158 71/29/94 75/32/100 177/28/160
