# OBJ written from E:\GODOT\JAM 92\00_GREYBOX\GreenHouse_03.obj
# Units	meters

o Green_House
v -0.885 0.058 -1.385
v 0.885 0.058 -1.385
v 0.885 0.058 1.385
v -0.885 0.058 1.385
v -0.885 0.75 -1.385
v 0.885 0.955 -1.385
v 0.885 0.955 1.385
v -0.885 0.75 1.385
v -0.756857 0.764841 -1.256
v 0.756857 0.940159 -1.256
v 0.756857 0.940159 0.786
v -0.756857 0.764841 0.786
v -0.747653 0.685373 -1.256
v 0.766061 0.86069 -1.256
v 0.766061 0.86069 0.786
v -0.747653 0.685373 0.786
v 0.539 0.058 1.385
v 0.221 0.058 1.385
v 0.221 0.058 -1.385
v 0.539 0.058 -1.385
v 0.537944 0.914804 -1.385
v 0.222056 0.878218 -1.385
v 0.537944 0.914804 1.385
v 0.222056 0.878218 1.385
v 0.537944 0.914804 0.786
v 0.222056 0.878218 0.786
v 0.222056 0.878218 -1.256
v 0.537944 0.914804 -1.256
v 0.222056 0.797684 0.786
v 0.537944 0.834269 0.786
v 0.537944 0.834269 -1.256
v 0.222056 0.797684 -1.256
v 0.885 0.606 1.385
v 0.885 0.114 1.385
v 0.885 0.114 -1.385
v 0.885 0.606 -1.385
v -0.885 0.606 -1.385
v -0.885 0.114 -1.385
v -0.885 0.114 1.385
v -0.885 0.606 1.385
v 0.538301 0.606 1.385
v 0.538868 0.114 1.385
v 0.221729 0.606 1.385
v 0.221137 0.114 1.385
v 0.221729 0.606 -1.385
v 0.221137 0.114 -1.385
v 0.538868 0.114 -1.385
v 0.538301 0.606 -1.385
v 0.538301 0.606 1.525
v 0.538868 0.114 1.525
v 0.221729 0.606 1.525
v 0.221137 0.114 1.525
v 0.514328 0.582 1.525
v 0.514841 0.138 1.525
v 0.2457 0.582 1.525
v 0.245166 0.138 1.525
v 0.514328 0.582 1.429
v 0.514841 0.138 1.429
v 0.2457 0.582 1.429
v 0.245166 0.138 1.429
v -0.818625 0.678219 -1.3296
v 0.818625 0.867844 -1.3296
v 0.818625 0.867844 1.3296
v -0.818625 0.678219 1.3296
v 0.497598 0.830663 -1.3296
v 0.205402 0.796821 -1.3296
v 0.514841 0.830663 1.3296
v 0.245166 0.796821 1.3296
v -0.818625 0.101031 -1.3296
v -0.818625 0.101031 1.3296
v 0.245166 0.101031 1.3296
v 0.514841 0.101031 1.3296
v 0.818625 0.101031 1.3296
v 0.818625 0.101031 -1.3296
v 0.497598 0.101031 -1.3296
v 0.205402 0.101031 -1.3296
v -0.818625 0.138 -1.3296
v -0.818625 0.138 1.3296
v -0.818625 0.582 -1.3296
v -0.818625 0.582 1.3296
v 0.245166 0.138 1.3296
v 0.245166 0.582 1.3296
v 0.514841 0.138 1.3296
v 0.514841 0.582 1.3296
v 0.818625 0.138 1.3296
v 0.818625 0.582 1.3296
v 0.818625 0.138 -1.3296
v 0.818625 0.582 -1.3296
v 0.497598 0.138 -1.3296
v 0.497598 0.582 -1.3296
v 0.205402 0.138 -1.3296
v 0.205402 0.582 -1.3296
v -0.637625 0.101031 -1.1486
v -0.637625 0.101031 0.7536
v 0.245166 0.101031 0.7536
v 0.514841 0.101031 0.7536
v 0.637625 0.101031 0.7536
v 0.637625 0.101031 -1.1486
v 0.497598 0.101031 -1.1486
v 0.205402 0.101031 -1.1486
v -0.637625 0.297587 -1.1486
v -0.637625 0.297587 0.7536
v 0.245166 0.297587 0.7536
v 0.514841 0.297587 0.7536
v 0.637625 0.297587 0.7536
v 0.637625 0.297587 -1.1486
v 0.497598 0.297587 -1.1486
v 0.205402 0.297587 -1.1486
v -0.885 -0.83 -1.385
v 0.885 -0.83 -1.385
v 0.885 -0.83 1.385
v -0.885 -0.83 1.385
v 0.539 -0.83 1.385
v 0.221 -0.83 1.385
v 0.221 -0.83 -1.385
v 0.539 -0.83 -1.385
v 0.514841 0.0776802 1.79371
v 0.514841 0.138 1.79371
v 0.245166 0.138 1.79371
v 0.245166 0.0776802 1.79371
v 0.514841 0.0776802 1.525
v 0.514841 0.138 1.525
v 0.245166 0.138 1.525
v 0.245166 0.0776802 1.525
v -0.162834 -0.134 1.525
v -0.162834 -0.19432 1.525
v -0.384834 -0.134 1.79371
v -0.384834 -0.19432 1.79371
v -0.384834 -0.134 1.525
v -0.384834 -0.19432 1.525
v -0.384834 -0.134 2.06242
v -0.384834 -0.19432 2.06242
v -0.162834 -0.134 2.06242
v -0.162834 -0.134 1.79371
v -0.162834 -0.19432 1.79371
v -0.162834 -0.19432 2.06242
v 0.514841 -0.46632 2.06242
v 0.514841 -0.406 2.06242
v 0.514841 -0.46632 1.79371
v 0.514841 -0.406 1.79371
v 0.245166 -0.406 2.06242
v 0.245166 -0.46632 2.06242
v 0.245166 -0.406 1.385
v -0.885 -0.406 1.385
v 0.245166 0.0250002 1.385
v -0.885 0.0250002 1.385
v -0.885 -0.406 -1.385
v -0.885 0.0250002 -1.385
v 0.221 -0.406 -1.385
v 0.221 0.0250002 -1.385
v 0.539 -0.406 -1.385
v 0.539 0.0250002 -1.385
v 0.885 -0.406 -1.385
v 0.885 0.0250002 -1.385
v 0.885 -0.406 1.385
v 0.885 0.0250002 1.385
v 0.514841 -0.406 1.385
v 0.514841 0.0250002 1.385
v 0.245166 -0.406 1.308
v 0.245166 0.0250002 1.308
v 0.514841 -0.406 1.308
v 0.514841 0.0250002 1.308
v 0.514841 -0.46632 1.38771
v 0.514841 -0.406 1.38771
v 0.245166 -0.406 1.38771
v 0.245166 -0.46632 1.38771
v 0.203295 -0.568017 1.308
v 0.203295 0.0540177 1.308
v 0.818625 0.0540177 1.308
v 0.818625 -0.568017 1.308
v -0.818625 -0.568017 1.308
v -0.818625 0.0540177 1.308
v 0.818625 0.0540177 -1.3296
v 0.818625 -0.568017 -1.3296
v -0.818625 -0.568017 -1.3296
v -0.818625 0.0540177 -1.3296
v 0.245166 -0.406 1.525
v 0.245166 -0.46632 1.525
v -0.162834 -0.678 1.525
v -0.162834 -0.73832 1.525
v -0.384834 -0.678 1.79371
v -0.384834 -0.73832 1.79371
v -0.384834 -0.678 1.525
v -0.384834 -0.73832 1.525
v -0.384834 -0.678 2.06242
v -0.384834 -0.73832 2.06242
v -0.162834 -0.678 2.06242
v -0.162834 -0.678 1.79371
v -0.162834 -0.73832 1.79371
v -0.162834 -0.73832 2.06242
v 0.245166 -1.01032 2.06242
v 0.245166 -1.01032 1.79371
v 0.245166 -0.406 1.79371
v 0.245166 -0.46632 1.79371
v 0.76938 -0.95 2.07585
v 0.652215 -0.95 1.87417
v 0.508386 -0.95 2.77074
v 0.508386 -1.01032 2.77074
v 0.241075 -0.95 2.49872
v 0.241075 -1.01032 2.49872
v 0.298691 -0.95 2.97681
v 0.298691 -1.01032 2.97681
v 0.0313797 -1.01032 2.70479
v 0.0313797 -0.95 2.70479
v 0.0397807 -0.95 3.23124
v 0.0397807 -1.01032 3.23124
v -0.22753 -1.01032 2.95922
v -0.22753 -0.95 2.95922
v 0.758429 -0.95 2.28161
v 0.677251 -0.95 2.55625
v 0.36772 -0.95 2.38488
v 0.652215 -0.58 1.87417
v 0.247234 -0.503 1.79302
v 0.76938 -0.58 2.07585
v 0.758429 -0.58 2.28161
v 0.677251 -0.58 2.55625
v 0.508386 -0.58 2.77074
v 0.36772 -0.58 2.38488
v 0.241075 -0.58 2.49872
v 0.435168 -0.58 2.18944
v 0.244889 -0.503 2.06172
v 0.436328 -0.95 2.06688
v 0.43279 -0.95 2.18785
v 0.399102 -0.95 1.82345
v 0.370753 -0.526485 1.81777
v 0.381257 -0.52302 2.06539
v 0.245166 -0.95 1.79371
v 0.245166 -0.95 2.06242
vn -0.11505 0.99336 0
vn -0.11505 0.99336 0
vn -0.11505 0.99336 0
vn 0.99336 0.11505 0
vn -0.99336 -0.11505 0
vn 0 0 1
vn 0 0 -1
vn -0.11505 0.99336 0
vn -0.11505 0.99336 0
vn -0.11505 0.99336 0
vn -1 0 0
vn 1 0 0
vn 0 1 0
vn -0.999999 0.00120221 0
vn -4.68986e-08 -1 0
vn 0.999999 0.00115417 0
vn -0.999999 -0.00115424 0
vn -0.999996 -0.00115423 -0.00257784
vn 0 -1 0
vn 0.999999 -0.00120223 0
vn 0.999999 -0.00120223 9.01136e-11
vn 5.5256e-08 1 0
vn 0.115038 -0.993257 -0.0143865
vn 0.115038 -0.993257 -0.0143864
vn 0.124956 -0.992136 -0.00719371
vn 0.128174 -0.991751 0.000657755
vn 0.123001 -0.992407 1.20502e-05
vn 0.117661 -0.993047 -0.00378977
vn 0.105548 -0.994409 -0.00314404
vn 0.10767 -0.994161 -0.00719366
vn 0.999999 -0.00120223 1.80227e-10
vn -0.999986 -0.00115422 -0.00515567
vn -2.9218e-07 0 1
vn -0.289784 0.957092 3.21396e-08
vn -1 0 2.21818e-07
vn -1 0 1.10909e-07
vn 0.289784 -0.957092 -3.21396e-08
vn -0.192213 0.981353 2.13181e-08
vn 4.88016e-08 1 1.9392e-14
vn 0.289784 0.957092 -3.21396e-08
vn 0.192213 -0.981353 -2.13181e-08
vn -3.25344e-08 -1 -2.13312e-14
vn -5.84359e-07 0 1
vn -0.289784 -0.957092 3.21396e-08
vn -1 0 2.21818e-07
vn -1 0 1.10909e-07
vn 1.62672e-08 1 2.13312e-14
vn 0.289784 0.957092 -3.21396e-08
vn 0.289784 -0.957092 -8.03491e-08
vn 4.88016e-08 -1 -2.51854e-08
vn -0.289784 -0.957092 3.21396e-08
vn -0.192213 -0.981353 2.13181e-08
vn -0.5547 -0.83205 6.15211e-08
vn 0.192213 0.981353 -2.13181e-08
vn -0.5547 0.83205 6.15212e-08
vn -0.192213 -0.981353 2.13181e-08
vn -0.192213 -0.981353 -1.71137e-08
vn -0.289784 -0.957092 -2.58009e-08
vn -6.03215e-08 -1 -5.54545e-08
vn -1.10512e-07 -1 -5.54544e-08
vn -1.10512e-07 -1 -1.10909e-07
vn -1.10512e-07 -1 0
vn 0.5547 -0.83205 -1.53803e-07
vn 0.192213 -0.981353 -9.17271e-08
vn 0.192213 -0.981353 -5.32953e-08
vn 5.84359e-07 0 -1
vn 0.700909 0 0.713251
vn 0.700909 0 0.713251
vn -0.70091 0 -0.71325
vn -0.700909 0 -0.71325
vn 0.700909 0 0.71325
vn -0.700909 0 -0.713251
vn -0.713251 0 0.700909
vn -0.97215 0 0.234361
vn -0.864674 0 0.502334
vn -0.985537 0 -0.169461
vn -0.888302 0 -0.45926
vn -0.785724 0 -0.618578
vn 0.837127 -0.00385785 0.546996
vn 0.668526 0 0.743689
vn 0.0677181 -0.969019 -0.23752
vn 0.984857 -0.00707819 0.173223
vn 1.03934e-07 1 -1.15272e-14
vn 1.55901e-07 1 -1.72908e-14
vn -0.145219 -0.989399 -0.00126721
vn -0.145493 -0.989315 0.00937858
vn -0.0551771 -0.986757 -0.152535
vn -0.145751 -0.989119 0.0200233
vn -0.00756416 -0.973276 -0.229516
vn -0.19309 0.00119958 0.98118
vn -0.196486 -2.07562e-07 0.980507
vn 0.999551 -0.00655137 0.0292341
vn 5.84359e-07 0 -1
vn -0.189691 0.00239935 0.981841
vn 0.0233002 -0.000469191 -0.999728
vn 0.192213 0.981353 -2.13181e-08
vn 0.289784 0.957092 -3.21396e-08
vt 0.25 1
vt 0.25 0.666667
vt 0.266575 0.683242
vt 0.266575 0.983425
vt 0.5 0.666667
vt 0.5 1
vt 0.483425 0.983425
vt 0.483425 0.683242
vt 0.450746 0.983425
vt 0.452064 0.983425
vt 0.406811 0.983425
vt 0.405493 0.983425
vt 0.406811 0.683242
vt 0.405493 0.683242
vt 0.450746 0.683242
vt 0.452064 0.683242
vt 0.450981 1
vt 0.406364 1
vt 0.406364 0.666667
vt 0.450981 0.666667
vt 0.451031 0.554146
vt 0.406318 0.563344
vt 0.406215 0.333333
vt 0.45113 0.333333
vt 0.451111 0.374872
vt 0.406234 0.376603
vt 0.798969 0.554146
vt 0.843682 0.563344
vt 0.843636 0.666667
vt 0.799019 0.666667
vt 0.79887 0.333333
vt 0.843785 0.333333
vt 0.843766 0.376603
vt 0.798889 0.374872
vt 0.75 0.666667
vt 0.75 0.544852
vt 0.75 0.373124
vt 0.75 0.333333
vt 1 0.602667
vt 1 0.666667
vt 1 0.333333
vt 1 0.384
vt 0.25 0.384
vt 0.25 0.333333
vt 0.25 0.602667
vt 0.5 0.373124
vt 0.5 0.333333
vt 0.5 0.544852
vt 0 0.384
vt 0 0.333333
vt 0 0.666667
vt 0 0.602667
vt 0.444117 0.548507
vt 0.444192 0.382061
vt 0.41323 0.554861
vt 0.413153 0.383258
vt 0 1
vt 0 0
vt 0.765 1
vt 1 1
vt 1 0
vt 0.765 0
vt 0.465 0
vt 0.465 1
vt 0.957872 1
vt 0.957872 0
vt 0.25 0
vt 0.5 0
vt 0.5 0.5
vt 0.25 0.5
vt 0.406215 0
vt 0.45113 0
vt 0.5 0.416667
vt 0.25 0.416667
vt 0.5 0.3175
vt 0.59125 0.439167
vt 0.59375 0.5625
vt 1 0.695
vt 1 0.26
vt 0 0.625
mtllib GreenHouse_03.mtl
usemtl Default
g Default
f 5/1/1 8/2/1 12/3/1 9/4/1
f 7/5/2 6/6/3 10/7/3 11/8/2
f 9/4/4 12/3/4 16/3/4 13/4/4
f 11/8/5 10/7/5 14/7/5 15/8/5
f 31/9/6 14/7/6 10/7/6 28/10/6
f 27/11/6 9/4/6 13/4/6 32/12/6
f 26/13/7 29/14/7 16/3/7 12/3/7
f 30/15/7 25/16/7 11/8/7 15/8/7
f 21/17/8 28/10/8 10/7/3 6/6/3
f 22/18/9 5/1/1 9/4/1 27/11/9
f 24/19/10 26/13/10 12/3/1 8/2/1
f 23/20/8 7/5/2 11/8/2 25/16/8
f 26/13/10 24/19/10 23/20/8 25/16/8
f 22/18/9 27/11/9 28/10/8 21/17/8
f 29/14/7 26/13/7 25/16/7 30/15/7
f 27/11/6 32/12/6 31/9/6 28/10/6
f 41/21/6 23/20/6 24/19/6 43/22/6
f 18/23/6 17/24/6 42/25/6 44/26/6
f 48/27/7 45/28/7 22/29/7 21/30/7
f 20/31/7 19/32/7 46/33/7 47/34/7
f 6/35/7 36/36/7 48/27/7 21/30/7
f 35/37/7 2/38/7 20/31/7 47/34/7
f 22/29/7 45/28/7 37/39/7 5/40/7
f 46/33/7 19/32/7 1/41/7 38/42/7
f 44/26/6 39/43/6 4/44/6 18/23/6
f 24/19/6 8/2/6 40/45/6 43/22/6
f 34/46/6 42/25/6 17/24/6 3/47/6
f 7/5/6 23/20/6 41/21/6 33/48/6
f 39/43/11 38/49/11 1/50/11 4/44/11
f 40/45/11 8/2/11 5/51/11 37/52/11
f 35/37/12 34/46/12 3/47/12 2/38/12
f 36/36/12 6/35/12 7/5/12 33/48/12
f 36/36/12 33/48/12 34/46/12 35/37/12
f 40/45/11 37/52/11 38/49/11 39/43/11
f 33/48/6 41/21/6 42/25/6 34/46/6
f 39/43/6 44/26/6 43/22/6 40/45/6
f 46/33/7 38/42/7 37/39/7 45/28/7
f 35/37/7 47/34/7 48/27/7 36/36/7
f 47/34/7 46/33/7 45/28/7 48/27/7
f 41/21/13 43/22/13 51/22/13 49/21/13
f 43/22/14 44/26/14 52/26/14 51/22/14
f 44/26/15 42/25/15 50/25/15 52/26/15
f 42/25/16 41/21/16 49/21/16 50/25/16
f 50/25/6 49/21/6 53/53/6 54/54/6
f 49/21/6 51/22/6 55/55/6 53/53/6
f 51/22/6 52/26/6 56/56/6 55/55/6
f 52/26/6 50/25/6 54/54/6 56/56/6
f 54/54/17 53/53/17 57/53/18 58/54/18
f 53/53/19 55/55/19 59/55/19 57/53/19
f 55/55/20 56/56/20 60/56/21 59/55/21
f 56/56/22 54/54/22 58/54/22 60/56/22
f 66/57/23 65/58/24 31/9/24 32/12/23
f 65/57/24 62/58/25 14/7/25 31/9/24
f 62/57/25 63/58/26 15/8/26 14/7/25
f 63/57/26 67/58/27 30/15/27 15/8/26
f 67/57/27 68/58/28 29/14/28 30/15/27
f 68/57/28 64/58/29 16/3/29 29/14/28
f 64/57/29 61/58/30 13/4/30 16/3/29
f 61/57/30 66/58/23 32/12/23 13/4/30
f 78/59/12 70/60/12 69/61/12 77/62/12
f 77/62/12 79/63/12 80/64/12 78/59/12
f 79/63/12 61/58/12 64/57/12 80/64/12
f 81/59/7 71/60/7 70/61/7 78/62/7
f 78/62/7 80/63/7 82/64/7 81/59/7
f 80/63/7 64/58/7 68/57/7 82/64/7
f 83/59/7 72/60/7 71/61/7 81/62/7
f 82/63/7 68/58/7 67/57/7 84/64/7
f 85/59/7 73/60/7 72/61/7 83/62/7
f 83/62/7 84/63/7 86/64/7 85/59/7
f 84/63/7 67/58/7 63/57/7 86/64/7
f 87/59/11 74/60/11 73/61/11 85/62/11
f 85/62/11 86/63/11 88/64/11 87/59/11
f 86/63/11 63/58/11 62/57/11 88/64/11
f 89/59/6 75/60/6 74/61/6 87/62/6
f 87/62/6 88/63/6 90/64/6 89/59/6
f 88/63/6 62/58/6 65/57/6 90/64/6
f 91/59/6 76/60/6 75/61/6 89/62/6
f 89/62/6 90/63/6 92/64/6 91/59/6
f 90/63/6 65/58/6 66/57/6 92/64/6
f 77/59/6 69/60/6 76/61/6 91/62/6
f 91/62/6 92/63/6 79/64/6 77/59/6
f 92/63/6 66/58/6 61/57/6 79/64/6
f 58/54/22 83/59/22 81/62/22 60/56/22
f 60/56/21 81/59/31 82/64/31 59/55/21
f 59/55/19 82/63/19 84/64/19 57/53/19
f 57/53/18 84/63/32 83/62/32 58/54/18
f 106/61/13 107/65/13 104/66/13 105/60/13
f 107/66/13 108/65/13 103/66/13 104/65/13
f 102/61/13 103/65/13 108/66/13 101/60/13
f 69/60/13 70/61/13 94/61/13 93/60/13
f 70/61/13 71/60/13 95/65/13 94/61/13
f 71/61/13 72/60/13 96/65/13 95/66/13
f 72/61/13 73/60/13 97/60/13 96/66/13
f 73/60/13 74/61/13 98/61/13 97/60/13
f 74/61/13 75/60/13 99/65/13 98/61/13
f 75/61/13 76/60/13 100/65/13 99/66/13
f 76/61/13 69/60/13 93/60/13 100/66/13
f 94/61/6 95/65/6 103/65/6 102/61/6
f 95/66/6 96/65/6 104/65/6 103/66/6
f 96/66/6 97/60/6 105/60/6 104/66/6
f 97/60/12 98/61/12 106/61/12 105/60/12
f 98/61/7 99/65/7 107/65/7 106/61/7
f 99/66/7 100/65/7 108/65/7 107/66/7
f 100/66/7 93/60/7 101/60/7 108/66/7
f 93/60/11 94/61/11 102/61/11 101/60/11
f 117/67/6 118/68/6 119/47/33 120/44/33
f 121/40/12 122/35/12 118/38/12 117/41/12
f 122/35/13 123/5/34 119/47/34 118/38/13
f 129/5/35 130/2/35 128/44/36 127/47/36
f 124/2/37 121/51/19 117/50/19 120/44/37
f 121/1/7 124/2/7 123/5/7 122/6/7
f 123/5/7 124/2/7 126/2/7 125/5/7
f 125/5/7 126/2/7 130/2/7 129/5/7
f 127/47/36 128/44/36 132/44/11 131/47/11
f 119/47/34 123/5/34 125/5/34 134/47/38
f 134/47/39 125/5/34 129/5/13 127/47/13
f 134/47/39 127/47/13 131/47/13 133/69/40
f 124/2/37 120/44/37 135/44/41 126/2/37
f 126/2/37 135/44/42 128/44/19 130/2/19
f 120/44/33 119/47/33 134/47/43 135/44/43
f 136/70/6 133/69/6 131/47/6 132/44/6
f 128/44/19 135/44/42 136/70/44 132/44/19
f 140/35/12 138/68/12 137/67/12 139/40/12
f 133/69/6 136/70/6 142/70/6 141/69/6
f 137/67/6 138/68/6 141/69/6 142/70/6
f 163/1/7 166/70/7 165/69/7 164/6/7
f 144/44/6 112/44/6 114/23/6 143/23/6
f 143/23/6 145/23/6 146/44/6 144/44/6
f 145/23/6 18/23/6 4/44/6 146/44/6
f 147/67/11 109/67/11 112/44/11 144/44/11
f 144/44/11 146/44/11 148/67/11 147/67/11
f 146/44/11 4/44/11 1/67/11 148/67/11
f 149/71/7 115/71/7 109/67/7 147/67/7
f 147/67/7 148/67/7 150/71/7 149/71/7
f 148/67/7 1/67/7 19/71/7 150/71/7
f 151/72/7 116/72/7 115/71/7 149/71/7
f 149/71/7 150/71/7 152/72/7 151/72/7
f 150/71/7 19/71/7 20/72/7 152/72/7
f 153/68/7 110/68/7 116/72/7 151/72/7
f 151/72/7 152/72/7 154/68/7 153/68/7
f 152/72/7 20/72/7 2/68/7 154/68/7
f 155/47/12 111/47/12 110/68/12 153/68/12
f 153/68/12 154/68/12 156/47/12 155/47/12
f 154/68/12 2/68/12 3/47/12 156/47/12
f 157/24/6 113/24/6 111/47/6 155/47/6
f 155/47/6 156/47/6 158/24/6 157/24/6
f 156/47/6 3/47/6 17/24/6 158/24/6
f 143/23/6 114/23/6 113/24/6 157/24/6
f 158/24/6 17/24/6 18/23/6 145/23/6
f 145/23/12 143/23/12 159/23/12 160/23/12
f 143/23/13 157/24/13 161/24/13 159/23/13
f 157/24/11 158/24/11 162/24/11 161/24/11
f 158/24/19 145/23/19 160/23/19 162/24/19
f 140/6/12 139/1/12 163/1/12 164/6/12
f 159/58/7 167/61/7 168/60/7 160/57/7
f 160/58/7 168/61/7 169/60/7 162/57/7
f 162/58/7 169/61/7 170/60/7 161/57/7
f 161/58/7 170/61/7 167/60/7 159/57/7
f 167/58/7 171/61/7 172/60/7 168/57/7
f 169/58/11 173/61/11 174/60/11 170/57/11
f 171/58/12 175/61/12 176/60/12 172/57/12
f 176/60/6 175/61/6 174/60/6 173/61/6
f 175/61/13 171/61/13 167/61/13 170/60/13 174/60/13
f 176/60/19 173/61/19 169/60/19 168/60/19 172/60/19
f 183/5/45 184/2/45 182/44/46 181/47/46
f 177/5/7 178/2/7 180/2/7 179/5/7
f 179/5/7 180/2/7 184/2/7 183/5/7
f 181/47/46 182/44/46 186/44/11 185/47/11
f 188/47/47 179/5/34 183/5/13 181/47/13
f 188/47/47 181/47/13 185/47/13 187/69/48
f 180/2/49 189/44/50 182/44/19 184/2/19
f 190/70/6 187/69/6 185/47/6 186/44/6
f 182/44/19 189/44/50 190/70/51 186/44/19
f 190/70/51 189/44/52 192/70/53 191/70/53
f 134/47/54 133/69/40 141/69/40 193/73/54
f 140/35/13 193/73/39 141/69/40 138/38/13
f 193/73/39 140/6/13 164/6/13 165/69/13
f 193/73/38 177/5/55 179/5/34 188/47/38
f 136/70/44 135/44/56 194/74/57 142/70/58
f 194/74/59 139/51/60 137/50/61 142/70/58
f 139/1/60 194/74/59 166/70/62 163/1/62
f 178/2/63 194/74/64 189/44/65 180/2/49
f 135/44/66 134/47/66 193/73/66 194/74/66
f 194/74/11 193/73/11 165/69/11 166/70/11
f 194/74/43 193/73/43 188/47/43 189/44/43
f 197/58/67 201/61/68 202/60/68 198/57/67
f 198/58/19 202/61/19 203/60/19 200/57/19
f 200/58/69 203/61/70 204/60/70 199/57/69
f 199/58/13 204/61/13 201/60/13 197/57/13
f 201/58/68 205/61/71 206/60/71 202/57/68
f 202/58/19 206/61/19 207/60/19 203/57/19
f 203/58/70 207/61/72 208/60/72 204/57/70
f 204/58/13 208/61/13 205/60/13 201/57/13
f 205/61/73 208/60/73 207/60/73 206/60/73
f 197/68/13 210/68/13 211/69/13 199/69/13
f 195/58/74 214/61/74 212/60/75 196/57/75
f 209/58/76 215/61/76 214/60/74 195/57/74
f 210/58/77 216/61/77 215/60/76 209/57/76
f 197/58/78 217/61/78 216/60/77 210/57/77
f 211/58/79 218/61/79 219/60/80 199/57/80
f 218/60/19 220/61/81 215/60/81 216/61/19
f 219/60/19 218/61/19 216/60/19 217/61/19
f 209/68/13 223/69/13 211/69/13 210/68/13
f 223/58/82 220/61/82 218/60/79 211/57/79
f 195/68/13 222/75/83 223/69/13 209/68/13
f 222/76/83 195/38/13 196/35/13 224/77/84
f 221/61/85 213/60/85 225/78/86 226/79/87
f 226/79/87 225/78/86 212/61/88 214/60/89
f 225/78/90 224/80/90 196/58/91 212/61/91
f 220/61/81 226/79/87 214/60/89 215/60/81
f 223/69/82 222/75/92 226/79/92 220/61/82
f 189/44/93 188/47/93 227/69/93 192/70/93
f 227/57/94 224/80/90 225/78/90 213/60/94
f 187/69/6 190/70/6 191/70/6 228/69/6
f 222/76/95 228/69/95 221/61/95 226/79/95
f 188/47/96 187/69/48 228/69/97 227/69/97
f 228/69/97 222/76/83 224/77/84 227/69/97

o Watermelons
v 0.461812 0.297587 -1.051
v 0.621188 0.297587 -1.051
v 0.621188 0.297587 0.604
v 0.461812 0.297587 0.604
v 0.607813 0.783445 -1.051
v 0.767187 0.783445 -1.051
v 0.767187 0.783445 0.604
v 0.607813 0.783445 0.604
v -0.239187 0.297587 -1.051
v -0.0798125 0.297587 -1.051
v -0.0798125 0.297587 0.604
v -0.239187 0.297587 0.604
v -0.137718 0.635258 -1.051
v 0.0216575 0.635258 -1.051
v 0.0216575 0.635258 0.604
v -0.137718 0.635258 0.604
vn 0 -1 0
vn 0 0 -1
vn 0.957695 -0.287787 0
vn 0 0 1
vn -0.957695 0.287787 0
vn 0 1 0
vn 0.957695 -0.287787 0
vn -0.957695 0.287787 0
vt 0.25 0
vt 0.5 0
vt 0.5 0.333333
vt 0.25 0.333333
vt 1 0.666667
vt 0.75 0.666667
vt 0.75 0.333333
vt 1 0.333333
vt 0.5 0.666667
vt 0.25 0.666667
vt 0 0.666667
vt 0 0.333333
vt 0.25 1
vt 0.5 1
vt 0.75 0.565
vt 1 0.565
vt 0.5 0.565
vt 0.25 0.565
vt 0 0.565
mtllib GreenHouse_03.mtl
usemtl Default
g Default
f 229/81/98 230/82/98 231/83/98 232/84/98
f 233/85/99 234/86/99 230/87/99 229/88/99
f 234/86/100 235/89/100 231/83/100 230/87/100
f 235/89/101 236/90/101 232/84/101 231/83/101
f 236/90/102 233/91/102 229/92/102 232/84/102
f 233/93/103 236/90/103 235/89/103 234/94/103
f 237/81/98 238/82/98 239/83/98 240/84/98
f 242/95/99 238/87/99 237/88/99 241/96/99
f 243/97/104 239/83/104 238/87/104 242/95/104
f 244/98/101 240/84/101 239/83/101 243/97/101
f 241/99/105 237/92/105 240/84/105 244/98/105
f 241/96/103 244/98/103 243/97/103 242/95/103

o Mesh
mtllib GreenHouse_03.mtl
